<svg xmlns="http://www.w3.org/2000/svg" version="1.1" xmlns:xlink="http://www.w3.org/1999/xlink" xmlns:svgjs="http://svgjs.dev/svgjs" width="1000" height="133" viewBox="0 0 1000 133"><g transform="matrix(1,0,0,1,-0.6060539193370005,0.5125766504248048)"><svg viewBox="0 0 396 53" data-background-color="#ffffff" preserveAspectRatio="xMidYMid meet" height="133" width="1000" xmlns="http://www.w3.org/2000/svg" xmlns:xlink="http://www.w3.org/1999/xlink"><g id="tight-bounds" transform="matrix(1,0,0,1,0.23999735205745765,-0.20425986821439324)"><svg viewBox="0 0 395.52 53.40851973642877" height="53.40851973642877" width="395.52"><g><svg viewBox="0 0 500.6047834820286 67.59850439611292" height="53.40851973642877" width="395.52"><g><rect width="6.06577401800796" height="67.59850439611292" x="83.14001988808361" y="0" fill="#0b2653" opacity="1" stroke-width="0" stroke="transparent" fill-opacity="1" class="rect-o-0" data-fill-palette-color="primary" rx="1%" id="o-0" data-palette-color="#0b2653"></rect></g><g transform="matrix(1,0,0,1,105.08478348202864,0.16815548357241994)"><svg viewBox="0 0 395.52 67.26219342896808" height="67.26219342896808" width="395.52"><g id="textblocktransform"><svg viewBox="0 0 395.52 67.26219342896808" height="67.26219342896808" width="395.52" id="textblock"><g><svg viewBox="0 0 395.52 67.26219342896808" height="67.26219342896808" width="395.52"><g transform="matrix(1,0,0,1,0,0)"><svg width="395.52" viewBox="2 -35.79999923706055 216.08999633789062 36.75" height="67.26219342896808" data-palette-color="#0b2653"><path d="M12.3-3.45L17.55-22.9 14.35-34.8 35-34.8 25.65 0 23.7 0 18.5-19.35 13.3 0 11.35 0 2-34.8 3.9-34.8 12.3-3.45ZM24.7-3.45L32.6-32.95 16.75-32.95 19.45-22.9 24.7-3.45ZM43 0L43-34.8 68.35-34.8 68.35-26 52.1-26 52.1-21.6 65.6-21.6 65.6-13.25 52.1-13.25 52.1-8.8 68.35-8.8 68.35 0 43 0ZM97.9-13.15L106.84-13.15Q106.9-6.6 103.09-2.93 99.3 0.75 92.65 0.75L92.65 0.75Q88.7 0.75 85.37-1.05 82.05-2.85 80.09-6.15 78.15-9.45 78.15-13.75L78.15-13.75 78.15-21.05Q78.15-25.3 80.02-28.6 81.9-31.9 85.17-33.73 88.45-35.55 92.5-35.55L92.5-35.55Q99.15-35.55 102.92-31.93 106.7-28.3 106.75-21.7L106.75-21.7 97.75-21.7Q97.7-24.25 96.37-25.65 95.05-27.05 92.5-27.05L92.5-27.05Q90.2-27.05 88.7-25.6 87.2-24.15 87.2-21.5L87.2-21.5 87.2-13.35Q87.2-10.7 88.77-9.22 90.34-7.75 92.65-7.75L92.65-7.75Q97.9-7.75 97.9-13.15L97.9-13.15ZM114.99-21.25Q114.99-25.15 116.94-28.5 118.89-31.85 122.22-33.8 125.54-35.75 129.49-35.75L129.49-35.75Q133.44-35.75 136.77-33.8 140.09-31.85 142.04-28.5 143.99-25.15 143.99-21.25L143.99-21.25 143.99-13.55Q143.99-9.65 142.04-6.3 140.09-2.95 136.77-1 133.44 0.95 129.49 0.95L129.49 0.95Q125.54 0.95 122.22-1 118.89-2.95 116.94-6.3 114.99-9.65 114.99-13.55L114.99-13.55 114.99-21.25ZM124.09-13.55Q124.09-11.15 125.59-9.45 127.09-7.75 129.49-7.75L129.49-7.75Q131.84-7.75 133.34-9.45 134.84-11.15 134.84-13.55L134.84-13.55 134.84-21.3Q134.84-23.75 133.34-25.4 131.84-27.05 129.49-27.05L129.49-27.05Q127.09-27.05 125.59-25.4 124.09-23.75 124.09-21.3L124.09-21.3 124.09-13.55ZM181.04-0.05L152.94-0.05 152.94-34.85 154.89-34.85 179.19-11.2 179.19-34.85 181.04-34.85 181.04-0.05ZM203.74 0.9Q196.49 0.9 192.56-2.53 188.64-5.95 188.69-12.8L188.69-12.8 196.84-12.8Q196.79-9.95 198.54-8.45 200.29-6.95 203.44-6.95L203.44-6.95Q206.04-6.95 207.54-7.8 209.04-8.65 209.04-10.4L209.04-10.4Q209.04-11.85 207.51-12.5 205.99-13.15 204.49-13.43 202.99-13.7 202.64-13.75L202.64-13.75Q198.79-14.5 195.99-15.58 193.19-16.65 191.29-18.85 189.39-21.05 189.39-24.65L189.39-24.65Q189.39-28.25 191.29-30.78 193.19-33.3 196.36-34.55 199.54-35.8 203.29-35.8L203.29-35.8Q207.84-35.8 211.16-34.1 214.49-32.4 216.39-28.95L216.39-28.95Q217.34-27.3 217.54-25.78 217.74-24.25 217.74-22.8L217.74-22.8 209.59-22.8Q209.59-25.5 208.14-26.78 206.69-28.05 203.64-28.05L203.64-28.05Q201.19-28.05 199.84-27.2 198.49-26.35 198.49-24.9L198.49-24.9Q198.49-23.3 200.29-22.55 202.09-21.8 204.84-21.2L204.84-21.2Q209.34-20.3 211.86-19.48 214.39-18.65 216.24-16.55 218.09-14.45 218.09-10.65L218.09-10.65Q218.09-7.05 216.09-4.45 214.09-1.85 210.81-0.48 207.54 0.9 203.74 0.9L203.74 0.9Z" opacity="1" transform="matrix(1,0,0,1,0,0)" fill="#0b2653" class="undefined-text-0" data-fill-palette-color="primary" id="text-0"></path></svg></g></svg></g></svg></g></svg></g><g transform="matrix(1,0,0,1,0,0.16815548357241994)"><svg viewBox="0 0 67.26103031214654 67.26219342896808" height="67.26219342896808" width="67.26103031214654"><g><svg xmlns="http://www.w3.org/2000/svg" xmlns:xlink="http://www.w3.org/1999/xlink" version="1.1" x="0" y="0" viewBox="0 0 115.59300231933594 115.59500122070312" style="enable-background:new 0 0 115.593 115.595;" xml:space="preserve" width="67.26103031214654" height="67.26219342896808" class="icon-icon-0" data-fill-palette-color="accent" id="icon-0"><g fill="#fcd900" data-fill-palette-color="accent"><path d="M63.666 2.43C62.098 0.862 60.014 0 57.797 0c-2.218 0-4.303 0.862-5.87 2.43L2.43 51.927C0.862 53.495 0 55.579 0 57.796c0 2.219 0.862 4.302 2.43 5.87l49.499 49.499c1.567 1.568 3.652 2.43 5.868 2.43 2.217 0 4.301-0.863 5.869-2.43l49.494-49.499c1.57-1.568 2.433-3.65 2.433-5.87 0-2.217-0.862-4.302-2.431-5.869L63.666 2.43zM111.535 62.04l-49.496 49.498c-2.344 2.343-6.143 2.343-8.486 0L4.057 62.04c-2.344-2.343-2.344-6.142 0-8.485L53.553 4.058c2.344-2.344 6.143-2.343 8.486 0l49.496 49.497C113.879 55.897 113.879 59.697 111.535 62.04z" fill="#fcd900" data-fill-palette-color="accent"></path><path d="M82.456 77.655c-3.524 0-2.819-6.341-7.047-5.637-4.227 0.704-2.817-4.226-6.34-4.226-2.408 0-2.514 2.631-3.688 4.297L50.195 59.846l7.601-12.487-0.705-3.523-1.184-1.777c0.928 0.672 2.065 1.073 3.298 1.073 3.112 0 5.636-2.523 5.636-5.637 0-3.112-2.523-5.636-5.636-5.636-3.113 0-5.637 2.523-5.637 5.636 0 0.443 0.057 0.872 0.153 1.286l-2.267-3.4H36.66l-3.412 10.801-2.389-1.926-0.883 1.096 2.817 2.271-0.362 1.145 2.113 0.705-2.818 2.818v14.092l-3.522 14.091h4.932l4.228-12.682V57.222l7.75 9.16-7.045 14.091H43l8.455-14.091v-2.114l-2.16-2.945 0.161-0.265 14.869 11.987c-0.426 0.232-0.937 0.381-1.598 0.381-4.228 0-2.818 4.933-4.932 4.933-3.522 0-6.341 3.522-6.341 3.522h35.932C87.387 81.882 85.979 77.655 82.456 77.655zM46.589 56.938l-1.247-1.005L43.705 53.7l5.637-2.818L46.589 56.938z" fill="#fcd900" data-fill-palette-color="accent"></path></g></svg></g></svg></g></svg></g><defs></defs></svg><rect width="395.52" height="53.40851973642877" fill="none" stroke="none" visibility="hidden"></rect></g></svg></g></svg>